<svg width="132" height="24" viewBox="0 0 132 24" fill="none" xmlns="http://www.w3.org/2000/svg">
<path d="M48.2441 1.46875L51.3906 8.99805L54.5488 1.46875H55.5098V10H54.7891V6.28516L54.8477 2.47656L51.6719 10H51.1152L47.9512 2.50586L48.0098 6.26172V10H47.2891V1.46875H48.2441ZM62.8316 6.12109L65.4391 1.46875H66.2711L63.1891 6.78906V10H62.4684V6.78906L59.3922 1.46875H60.2477L62.8316 6.12109ZM53.6699 19.1582C53.6035 20.0762 53.2637 20.7988 52.6504 21.3262C52.041 21.8535 51.2363 22.1172 50.2363 22.1172C49.1426 22.1172 48.2812 21.75 47.6523 21.0156C47.0273 20.2773 46.7148 19.2656 46.7148 17.9805V17.459C46.7148 16.6387 46.8594 15.916 47.1484 15.291C47.4375 14.666 47.8496 14.1875 48.3848 13.8555C48.9238 13.5195 49.5488 13.3516 50.2598 13.3516C51.2441 13.3516 52.0371 13.6152 52.6387 14.1426C53.2402 14.6699 53.5879 15.4102 53.6816 16.3633H51.9238C51.8809 15.8125 51.7266 15.4141 51.4609 15.168C51.1992 14.918 50.7988 14.793 50.2598 14.793C49.6738 14.793 49.2344 15.0039 48.9414 15.4258C48.6523 15.8438 48.5039 16.4941 48.4961 17.377V18.0215C48.4961 18.9434 48.6348 19.6172 48.9121 20.043C49.1934 20.4688 49.6348 20.6816 50.2363 20.6816C50.7793 20.6816 51.1836 20.5586 51.4492 20.3125C51.7188 20.0625 51.873 19.6777 51.9121 19.1582H53.6699ZM64.5895 22H62.8316V18.3438H59.4039V22H57.6461V13.4688H59.4039V16.9258H62.8316V13.4688H64.5895V22ZM75.9602 17.9277C75.9602 18.7676 75.8117 19.5039 75.5148 20.1367C75.218 20.7695 74.7922 21.2578 74.2375 21.6016C73.6867 21.9453 73.0539 22.1172 72.3391 22.1172C71.632 22.1172 71.0012 21.9473 70.4465 21.6074C69.8918 21.2676 69.4621 20.7832 69.1574 20.1543C68.8527 19.5215 68.6984 18.7949 68.6945 17.9746V17.5527C68.6945 16.7129 68.8449 15.9746 69.1457 15.3379C69.4504 14.6973 69.8781 14.207 70.4289 13.8672C70.9836 13.5234 71.6164 13.3516 72.3273 13.3516C73.0383 13.3516 73.6691 13.5234 74.2199 13.8672C74.7746 14.207 75.2023 14.6973 75.5031 15.3379C75.8078 15.9746 75.9602 16.7109 75.9602 17.5469V17.9277ZM74.1789 17.541C74.1789 16.6465 74.0187 15.9668 73.6984 15.502C73.3781 15.0371 72.9211 14.8047 72.3273 14.8047C71.7375 14.8047 71.2824 15.0352 70.9621 15.4961C70.6418 15.9531 70.4797 16.625 70.4758 17.5117V17.9277C70.4758 18.7988 70.6359 19.4746 70.9562 19.9551C71.2766 20.4355 71.7375 20.6758 72.3391 20.6758C72.9289 20.6758 73.382 20.4453 73.6984 19.9844C74.0148 19.5195 74.175 18.8438 74.1789 17.957V17.541ZM81.9285 22H80.1707V13.4688H81.9285V22ZM93.0824 19.1582C93.016 20.0762 92.6762 20.7988 92.0629 21.3262C91.4535 21.8535 90.6488 22.1172 89.6488 22.1172C88.5551 22.1172 87.6937 21.75 87.0648 21.0156C86.4398 20.2773 86.1273 19.2656 86.1273 17.9805V17.459C86.1273 16.6387 86.2719 15.916 86.5609 15.291C86.85 14.666 87.2621 14.1875 87.7973 13.8555C88.3363 13.5195 88.9613 13.3516 89.6723 13.3516C90.6566 13.3516 91.4496 13.6152 92.0512 14.1426C92.6527 14.6699 93.0004 15.4102 93.0941 16.3633H91.3363C91.2934 15.8125 91.1391 15.4141 90.8734 15.168C90.6117 14.918 90.2113 14.793 89.6723 14.793C89.0863 14.793 88.6469 15.0039 88.3539 15.4258C88.0648 15.8438 87.9164 16.4941 87.9086 17.377V18.0215C87.9086 18.9434 88.0473 19.6172 88.3246 20.043C88.6059 20.4688 89.0473 20.6816 89.6488 20.6816C90.1918 20.6816 90.5961 20.5586 90.8617 20.3125C91.1312 20.0625 91.2855 19.6777 91.3246 19.1582H93.0824ZM102.191 18.3027H98.8164V20.5879H102.777V22H97.0586V13.4688H102.766V14.8926H98.8164V16.9258H102.191V18.3027Z" fill="white"/>
<path d="M12.7662 21L17 13.9437L21.2338 21H12.7662Z" stroke="white" stroke-width="2"/>
<path d="M1 6L32.8462 12.7691" stroke="white" stroke-width="2"/>
</svg>
